<svg width="39" height="24" viewBox="0 0 39 24" fill="none" xmlns="http://www.w3.org/2000/svg">
<rect x="0.5" width="38" height="24" rx="3" fill="#306FC8"/>
<mask id="mask0_1478_18960" style="mask-type:alpha" maskUnits="userSpaceOnUse" x="0" y="0" width="39" height="24">
<rect x="0.5" width="38" height="24" rx="3" fill="url(#paint0_linear_1478_18960)"/>
</mask>
<g mask="url(#mask0_1478_18960)">
<path d="M16.9454 17.5758V14.082L15.3086 15.8027L16.9454 17.5758Z" fill="white"/>
<path d="M10.0859 14.5215V15.3079L12.4263 15.3032V16.204H10.0859V17.0668H12.7097L13.9312 15.7894L12.7586 14.5215H10.0859Z" fill="white"/>
<path d="M20.0305 7.89937C20.1673 7.82311 20.2503 7.67058 20.2503 7.48469C20.2503 7.2988 20.1624 7.16534 20.0305 7.09384C19.9034 7.02234 19.7129 7.01758 19.5223 7.01758H18.2031V7.98993H19.5077C19.7129 7.98993 19.8839 7.9804 20.0305 7.89937Z" fill="white"/>
<path d="M2.46484 8.58655H3.92574L3.19285 6.85156L2.46484 8.58655Z" fill="white"/>
<path d="M19.4081 14.5215H18.0156V15.6178H19.3983C19.8039 15.6178 20.058 15.4271 20.058 15.0506C20.0531 14.674 19.7892 14.5215 19.4081 14.5215Z" fill="white"/>
<path d="M2.73777 10.3549H3.65633L4.07163 11.332H7.66281V10.5884L7.98528 11.332H9.84194L10.1644 10.5789V11.332H19.0862V9.73999H19.2621C19.3891 9.73999 19.4233 9.75429 19.4233 9.94971V11.332H24.0356V10.9554C24.4021 11.1509 24.9786 11.332 25.7506 11.332H27.6903L28.1105 10.3549H29.0291L29.4444 11.332H33.1724V10.4073L33.744 11.332H36.7391V5.25H33.7782V5.96497L33.3532 5.25H30.3092V5.96497L29.9379 5.25H25.8239C25.1301 5.25 24.5194 5.34056 24.0356 5.59795V5.25H21.2018V5.59795C20.8695 5.3358 20.4542 5.25 19.9852 5.25H9.6123L8.90873 6.81816L8.20515 5.25H4.94133V5.96497L4.57 5.25H1.78501L0.5 8.1337V11.332H2.32246L2.73777 10.3549ZM24.236 6.61797C24.578 6.27002 25.1252 6.10796 25.863 6.10796H26.8842V7.04218H25.8825C25.4868 7.04218 25.2669 7.09938 25.0568 7.30434C24.8711 7.48546 24.7441 7.83341 24.7441 8.29099C24.7441 8.7581 24.8369 9.08699 25.047 9.31578C25.2034 9.48737 25.5014 9.5398 25.7897 9.5398H26.2685L27.7734 6.10796H29.3662L31.1789 10.2357V6.10796H32.8108L34.687 9.14419V6.10796H35.7864V10.474H34.2619L32.244 7.20424V10.474H30.0698L29.6594 9.4969H27.4363L27.0258 10.474H25.7848C25.262 10.474 24.6024 10.3549 24.2311 9.98785C23.8549 9.61606 23.6643 9.11559 23.6643 8.32436C23.6643 7.67612 23.7816 7.08508 24.236 6.61797ZM22.0471 6.10796H23.1415V10.474H22.0471V6.10796ZM17.1367 6.10796H19.5992C20.1415 6.10796 20.5422 6.12703 20.8842 6.31768C21.2262 6.51311 21.4363 6.79909 21.4363 7.28527C21.4363 7.97641 20.9575 8.33389 20.6741 8.44352C20.9086 8.52931 21.109 8.68661 21.2018 8.8153C21.3533 9.02502 21.3777 9.22522 21.3777 9.60653V10.474H20.3028V9.92112C20.3028 9.66373 20.3272 9.28241 20.1269 9.07746C19.9754 8.92016 19.7409 8.8868 19.35 8.8868H18.2018V10.474H17.1318V6.10796H17.1367ZM12.8273 6.10796H16.394V7.01835H13.8924V7.80481H16.3305V8.70091H13.8924V9.56363L16.394 9.55887V10.4693H12.8273V6.10796ZM1.67263 10.474H0.509772L2.42018 6.10796H4.013L5.82569 10.2357V6.10796H7.57486L8.96736 9.06792L10.2524 6.10796H12.0309V10.474H10.9364V7.05648L9.38755 10.474H8.44945L6.89571 7.05172V10.474H4.71658L4.30616 9.4969H2.08305L1.67263 10.474Z" fill="white"/>
<path d="M28.5444 6.85156L27.8164 8.58655H29.2724L28.5444 6.85156Z" fill="white"/>
<path d="M36.1339 14.6212C36.0215 14.6927 35.9727 14.7975 35.9727 14.9358C35.9727 15.0978 36.0704 15.2122 36.2072 15.2599C36.3147 15.298 36.4368 15.3076 36.6176 15.3076L37.1893 15.3219C37.7805 15.3362 38.1713 15.4315 38.4107 15.6746C38.445 15.7079 38.4743 15.7413 38.4987 15.7747V14.5449H36.559C36.3684 14.5449 36.2365 14.5545 36.1339 14.6212Z" fill="white"/>
<path d="M37.0567 17.9712H34.9949V17.037H37.047C37.2473 17.037 37.389 17.0084 37.4769 16.9321C37.5502 16.8654 37.604 16.7701 37.604 16.6461C37.604 16.5174 37.5502 16.4173 37.472 16.3554C37.3939 16.2887 37.2815 16.2601 37.1007 16.2601C36.104 16.2315 34.8483 16.2934 34.8483 14.9064C34.8483 14.282 35.2538 13.6099 36.3776 13.6099H38.503V12.752H36.5242C35.933 12.752 35.4883 12.8854 35.1854 13.0999V12.752H32.2685C31.8043 12.752 31.2473 12.8616 30.9884 13.0999V12.752H25.7653V13.0999C25.35 12.8139 24.6513 12.752 24.319 12.752H20.8745V13.0999C20.5471 12.7901 19.824 12.752 19.3793 12.752H15.5194L14.6351 13.6862L13.8142 12.752H8.05859V18.8339H13.7116L14.6155 17.8854L15.4755 18.8292L18.9543 18.8339V17.3992H19.3012C19.7605 17.3992 20.3077 17.3897 20.7816 17.1895V18.8339H23.6643V17.2419H23.806C23.9819 17.2419 23.9966 17.2562 23.9966 17.4183V18.8339H32.718C33.2652 18.8339 33.8564 18.6957 34.1789 18.4479V18.8339H36.9444C37.516 18.8339 38.0828 18.7529 38.5127 18.5527V17.4231C38.2342 17.7949 37.7457 17.9712 37.0567 17.9712ZM19.3403 16.5127H18.0113V17.9712H15.9299L14.6204 16.5365L13.2524 17.976H9.01624V13.6099H13.3159L14.6253 15.0446L15.9885 13.6099H19.4087C20.2491 13.6099 21.2018 13.8482 21.2018 15.0541C21.1969 16.2601 20.2735 16.5127 19.3403 16.5127ZM25.7702 16.3173C25.9216 16.527 25.9461 16.7272 25.951 17.1085V17.9712H24.876V17.4183C24.876 17.1609 24.9005 16.7796 24.7002 16.5746C24.5438 16.4173 24.3142 16.384 23.9233 16.384H22.7751V17.9712H21.7051V13.6051H24.1676C24.7099 13.6051 25.1057 13.6242 25.4526 13.8196C25.7946 14.0151 26.0047 14.301 26.0047 14.7872C26.0047 15.4784 25.5259 15.8358 25.2474 15.9455C25.4819 16.0313 25.6822 16.1886 25.7702 16.3173ZM30.1626 14.5203H27.6659V15.3068H30.1089V16.2076H27.6659V17.0704H30.1675V17.976H26.6008V13.6099H30.1675V14.5203H30.1626ZM32.8792 17.9712H30.7978V17.037H32.8695C33.0698 17.037 33.2115 17.0084 33.2994 16.9321C33.3727 16.8654 33.4265 16.7701 33.4265 16.6461C33.4265 16.5174 33.3727 16.4173 33.2945 16.3554C33.2164 16.2887 33.104 16.2601 32.9232 16.2601C31.9265 16.2315 30.6708 16.2934 30.6708 14.9064C30.6708 14.2772 31.0763 13.6099 32.2001 13.6099H34.3401V14.5441H32.3809C32.1854 14.5441 32.0584 14.5489 31.9509 14.6156C31.8385 14.6871 31.7946 14.792 31.7946 14.9302C31.7946 15.0923 31.8923 15.2067 32.0291 15.2543C32.1415 15.2925 32.2587 15.302 32.4395 15.302L33.0112 15.3163C33.6024 15.3306 33.9932 15.4259 34.2327 15.669C34.4427 15.8883 34.5551 16.1409 34.5551 16.5937C34.56 17.5279 33.9639 17.9712 32.8792 17.9712Z" fill="white"/>
<path d="M24.6008 14.593C24.4737 14.5263 24.2783 14.5215 24.0926 14.5215H22.7734V15.4938H24.078C24.2832 15.4938 24.4591 15.4891 24.6008 15.408C24.7376 15.3318 24.8207 15.1793 24.8207 14.9934C24.8158 14.8027 24.7327 14.6692 24.6008 14.593Z" fill="white"/>
</g>
<defs>
<linearGradient id="paint0_linear_1478_18960" x1="19.5" y1="0" x2="19.5" y2="24" gradientUnits="userSpaceOnUse">
<stop stop-color="#1B8ABA"/>
<stop offset="1" stop-color="#005D9C"/>
</linearGradient>
</defs>
</svg>
