
<svg width="39" height="24" viewBox="0 0 39 24" fill="none" xmlns="http://www.w3.org/2000/svg">
<rect x="0.5" width="38" height="24" rx="3" fill="#0F3560"/>
<path d="M22.8174 17.9003H16.168V6.10742H22.8174V17.9003Z" fill="#FF5F00"/>
<path d="M16.5923 12.002C16.5923 9.60972 17.7273 7.47878 19.4948 6.10552C18.2023 5.10132 16.5711 4.50195 14.7983 4.50195C10.6013 4.50195 7.19922 7.85976 7.19922 12.002C7.19922 16.1441 10.6013 19.502 14.7983 19.502C16.5711 19.502 18.2023 18.9026 19.4948 17.8984C17.7273 16.5251 16.5923 14.3942 16.5923 12.002Z" fill="#EB001B"/>
<path d="M31.7843 12.002C31.7843 16.1441 28.3822 19.502 24.1853 19.502C22.4125 19.502 20.7813 18.9026 19.4883 17.8984C21.2563 16.5251 22.3912 14.3942 22.3912 12.002C22.3912 9.60972 21.2563 7.47878 19.4883 6.10552C20.7813 5.10132 22.4125 4.50195 24.1853 4.50195C28.3822 4.50195 31.7843 7.85976 31.7843 12.002Z" fill="#F79E1B"/>
<path d="M12.9181 12.0486C12.9181 11.721 13.1357 11.4518 13.4912 11.4518C13.8308 11.4518 14.0601 11.7094 14.0601 12.0486C14.0601 12.3878 13.8308 12.6453 13.4912 12.6453C13.1357 12.6453 12.9181 12.3762 12.9181 12.0486ZM14.4473 12.0486V11.1167H14.0366V11.3429C13.9064 11.1751 13.7087 11.0698 13.4401 11.0698C12.9105 11.0698 12.4953 11.4795 12.4953 12.0486C12.4953 12.6181 12.9105 13.0273 13.4401 13.0273C13.7087 13.0273 13.9064 12.922 14.0366 12.7542V12.9805H14.4473V12.0486ZM28.3247 12.0486C28.3247 11.721 28.5423 11.4518 28.8977 11.4518C29.2378 11.4518 29.4667 11.7094 29.4667 12.0486C29.4667 12.3878 29.2378 12.6453 28.8977 12.6453C28.5423 12.6453 28.3247 12.3762 28.3247 12.0486ZM29.8543 12.0486V10.3682H29.4432V11.3429C29.3129 11.1751 29.1153 11.0698 28.8466 11.0698C28.317 11.0698 27.9018 11.4795 27.9018 12.0486C27.9018 12.6181 28.317 13.0273 28.8466 13.0273C29.1153 13.0273 29.3129 12.922 29.4432 12.7542V12.9805H29.8543V12.0486ZM19.5448 11.4326C19.8094 11.4326 19.9794 11.5964 20.0228 11.8848H19.0428C19.0867 11.6156 19.2522 11.4326 19.5448 11.4326ZM19.5529 11.0698C18.9994 11.0698 18.6122 11.4675 18.6122 12.0486C18.6122 12.6413 19.0152 13.0273 19.5805 13.0273C19.865 13.0273 20.1255 12.9573 20.3548 12.7662L20.1536 12.4659C19.9953 12.5904 19.7935 12.6609 19.604 12.6609C19.3395 12.6609 19.0984 12.54 19.0392 12.2043H20.4417C20.4457 12.1539 20.4498 12.103 20.4498 12.0486C20.4457 11.4675 20.0821 11.0698 19.5529 11.0698ZM24.5116 12.0486C24.5116 11.721 24.7292 11.4518 25.0847 11.4518C25.4243 11.4518 25.6536 11.7094 25.6536 12.0486C25.6536 12.3878 25.4243 12.6453 25.0847 12.6453C24.7292 12.6453 24.5116 12.3762 24.5116 12.0486ZM26.0407 12.0486V11.1167H25.6301V11.3429C25.4994 11.1751 25.3022 11.0698 25.0335 11.0698C24.5039 11.0698 24.0888 11.4795 24.0888 12.0486C24.0888 12.6181 24.5039 13.0273 25.0335 13.0273C25.3022 13.0273 25.4994 12.922 25.6301 12.7542V12.9805H26.0407V12.0486ZM22.1924 12.0486C22.1924 12.6141 22.5913 13.0273 23.2 13.0273C23.4845 13.0273 23.674 12.9649 23.8794 12.8051L23.6822 12.4775C23.5279 12.5868 23.366 12.6453 23.1878 12.6453C22.8599 12.6413 22.6189 12.4074 22.6189 12.0486C22.6189 11.6897 22.8599 11.4559 23.1878 11.4518C23.366 11.4518 23.5279 11.5103 23.6822 11.6197L23.8794 11.2921C23.674 11.1323 23.4845 11.0698 23.2 11.0698C22.5913 11.0698 22.1924 11.4831 22.1924 12.0486ZM27.4871 11.0698C27.2501 11.0698 27.0959 11.1791 26.9892 11.3429V11.1167H26.5821V12.9805H26.9932V11.9356C26.9932 11.6272 27.1276 11.4559 27.3962 11.4559C27.4794 11.4559 27.5663 11.4675 27.6531 11.5027L27.7797 11.1207C27.6888 11.0854 27.5703 11.0698 27.4871 11.0698ZM16.4784 11.2648C16.2808 11.1363 16.0085 11.0698 15.7082 11.0698C15.2297 11.0698 14.9217 11.2961 14.9217 11.6665C14.9217 11.9705 15.151 12.1579 15.5734 12.2164L15.7674 12.2436C15.9927 12.2749 16.099 12.3333 16.099 12.4386C16.099 12.5828 15.9488 12.6649 15.6684 12.6649C15.3839 12.6649 15.1786 12.5752 15.0402 12.4699L14.8466 12.7854C15.0719 12.9492 15.3563 13.0273 15.6643 13.0273C16.2098 13.0273 16.5259 12.7738 16.5259 12.419C16.5259 12.0914 16.2772 11.92 15.866 11.8616L15.6725 11.8339C15.4947 11.8107 15.3523 11.7759 15.3523 11.6509C15.3523 11.5143 15.4866 11.4326 15.7118 11.4326C15.9529 11.4326 16.1862 11.5224 16.3007 11.5924L16.4784 11.2648ZM21.7772 11.0698C21.5402 11.0698 21.386 11.1791 21.2797 11.3429V11.1167H20.8727V12.9805H21.2833V11.9356C21.2833 11.6272 21.4176 11.4559 21.6863 11.4559C21.7695 11.4559 21.8563 11.4675 21.9432 11.5027L22.0698 11.1207C21.9789 11.0854 21.8604 11.0698 21.7772 11.0698ZM18.2726 11.1167H17.6009V10.5512H17.1858V11.1167H16.8027V11.4871H17.1858V12.3373C17.1858 12.7698 17.3558 13.0273 17.8416 13.0273C18.0197 13.0273 18.2251 12.9729 18.3553 12.8832L18.2368 12.5359C18.1143 12.606 17.9799 12.6413 17.8732 12.6413C17.6679 12.6413 17.6009 12.5163 17.6009 12.3293V11.4871H18.2726V11.1167ZM12.1321 12.9805V11.8107C12.1321 11.3702 11.8476 11.0738 11.389 11.0698C11.148 11.0658 10.8992 11.1399 10.7251 11.4014C10.5948 11.1948 10.3895 11.0698 10.101 11.0698C9.89925 11.0698 9.70206 11.1283 9.54783 11.3465V11.1167H9.13672V12.9805H9.55145V11.9473C9.55145 11.6237 9.73326 11.4518 10.0141 11.4518C10.2868 11.4518 10.4248 11.6272 10.4248 11.9432V12.9805H10.84V11.9473C10.84 11.6237 11.0295 11.4518 11.3022 11.4518C11.5826 11.4518 11.7169 11.6272 11.7169 11.9432V12.9805H12.1321Z" fill="white"/>
</svg>
