<svg width="60" height="32" viewBox="0 0 60 32" fill="none" xmlns="http://www.w3.org/2000/svg">
<path d="M12.3459 25.7822C12.3459 25.7822 1.80528 22.1875 3.02384 7.62558C3.02384 7.62558 7.6544 6.28516 12.3459 6.28516C17.0374 6.28516 21.5461 7.56465 21.6679 7.62558C22.8865 22.1875 12.3459 25.7822 12.3459 25.7822Z" fill="url(#paint0_linear_1478_18963)"/>
<path d="M12.3459 25.7822C12.3459 25.7822 1.80528 22.1875 3.02384 7.62558C3.02384 7.62558 7.6544 6.28516 12.3459 6.28516C17.0374 6.28516 21.5461 7.56465 21.6679 7.62558L20.6931 8.47858L12.3459 24.8683V25.7822Z" fill="url(#paint1_linear_1478_18963)"/>
<path d="M12.3478 24.8685C12.3478 24.8685 2.84295 21.6392 3.93966 8.41779C3.93966 8.41779 8.14372 7.19922 12.3478 7.19922C16.6128 7.19922 20.695 8.35686 20.8168 8.41779C21.9135 21.6392 12.3478 24.8685 12.3478 24.8685Z" fill="white" stroke="#1A171B" stroke-width="0.5145" stroke-linecap="round"/>
<path d="M12.3478 24.8685C12.3478 24.8685 2.84295 21.6392 3.93966 8.41779C3.93966 8.41779 8.14372 7.19922 12.3478 7.19922C16.6128 7.19922 20.695 8.35686 20.8168 8.41779C21.9135 21.6392 12.3478 24.8685 12.3478 24.8685Z" fill="white"/>
<path d="M3.87702 8.29668H3.81609V8.41854C3.26774 15.3034 5.58302 19.4466 7.65458 21.7009C9.90893 24.1381 12.2851 24.9911 12.3461 24.9911H12.407H12.4679C12.4679 24.9911 14.9051 24.1381 17.1594 21.7009C19.231 19.4466 21.6072 15.3034 20.9979 8.41854V8.35761H20.937C20.876 8.35761 16.7329 7.13904 12.407 7.13904C8.14201 7.07811 3.87702 8.23575 3.87702 8.29668ZM12.4679 7.2609C16.4283 7.2609 20.1449 8.29668 20.6933 8.47947C20.7542 9.14968 20.7542 9.94175 20.7542 10.551C20.7542 16.0955 18.6826 19.6294 16.8548 21.64C14.7832 23.8944 12.6507 24.7473 12.2851 24.8692C11.9805 24.7473 9.72615 23.8944 7.71551 21.64C5.88766 19.6294 3.87702 16.1564 3.87702 10.612C3.87702 10.0027 3.93795 9.21061 3.99888 8.54039C4.66909 8.35761 8.62944 7.2609 12.4679 7.2609Z" fill="url(#paint2_linear_1478_18963)"/>
<path d="M12.3476 23.2225C12.3476 23.2225 4.366 20.298 5.27993 9.20898C5.27993 9.20898 8.81377 9.51363 12.3476 9.51363C15.8815 9.51363 19.3544 9.26991 19.4153 9.20898C20.3902 20.298 12.3476 23.2225 12.3476 23.2225Z" fill="url(#paint3_linear_1478_18963)"/>
<path d="M12.3477 22.2478C12.3477 22.2478 5.46279 19.7497 6.25486 10.123C6.25486 10.123 9.30128 10.3668 12.3477 10.3668C15.3941 10.3668 18.3796 10.123 18.5015 10.123C19.2935 19.7497 12.3477 22.2478 12.3477 22.2478Z" fill="url(#paint4_radial_1478_18963)"/>
<path d="M19.4127 9.20898C19.2909 9.20898 15.8789 9.51363 12.345 9.51363C8.81119 9.51363 5.27734 9.20898 5.27734 9.20898L6.2522 10.1838C6.2522 10.1838 9.29862 10.4276 12.345 10.4276C15.3915 10.4276 18.377 10.1838 18.4988 10.1838L19.4127 9.20898Z" fill="#8B1820"/>
<path d="M12.3476 23.2225C12.3476 23.2225 4.366 20.298 5.27993 9.20898L6.25478 10.1838C5.46271 19.7496 12.3476 22.3086 12.3476 22.3086V23.2225Z" fill="url(#paint5_linear_1478_18963)"/>
<path d="M8.08203 18.4094L9.17874 11.0371H11.1285L13.4437 18.4094H11.4331L10.3973 14.571L9.84895 18.4094H8.08203Z" fill="white"/>
<path d="M13.7475 11.0371H15.5753L16.672 18.4094H14.9051L14.2349 14.571L13.6256 17.6174L12.5898 14.571L13.7475 11.0371Z" fill="white"/>
<path d="M28.6133 14.5709H27.151L25.7497 10.9761L25.2623 14.5709H23.6172L24.653 7.92969H26.2371L28.6133 14.5709ZM27.5775 11.1589L28.7961 7.92969H30.3802L31.2942 14.5709H29.71L29.2835 10.9761L28.3696 13.1086L27.5775 11.1589Z" fill="#1A171B"/>
<path d="M37.3856 13.4132L36.9591 14.5709H35.375L37.6294 7.92969H39.2744L41.4678 14.5709H39.8228L39.4572 13.4132H37.3856ZM38.4214 10.0013L37.7512 12.1337H39.0307L38.4214 10.0013Z" fill="#1A171B"/>
<path d="M49.5134 12.6226H46.406C46.406 13.2928 46.7107 13.6584 47.3199 13.6584C47.6246 13.6584 47.8683 13.5366 48.0511 13.2319H49.4524C49.3306 13.7803 49.0259 14.1458 48.6604 14.3896C48.2948 14.6333 47.8074 14.7551 47.3199 14.7551C45.9186 14.7551 44.8828 13.9021 44.8828 12.318C44.8828 10.7948 45.8577 9.88086 47.1981 9.88086C48.6604 9.88086 49.5134 10.8557 49.5134 12.3789V12.6226ZM48.1729 11.6478C48.112 11.2213 47.7464 10.9166 47.3199 10.9166C46.8934 10.9166 46.5279 11.1604 46.467 11.6478H48.1729Z" fill="#1A171B"/>
<path d="M54.6306 12.6226H51.5232C51.5232 13.2928 51.8279 13.6584 52.4371 13.6584C52.7418 13.6584 52.9855 13.5366 53.1683 13.2319H54.5696C54.4478 13.7803 54.1431 14.1458 53.7776 14.3896C53.412 14.6333 52.9246 14.7551 52.4371 14.7551C51.0358 14.7551 50 13.9021 50 12.318C50 10.7948 50.9749 9.88086 52.3153 9.88086C53.7776 9.88086 54.6306 10.8557 54.6306 12.3789V12.6226ZM53.2901 11.6478C53.2292 11.2213 52.8636 10.9166 52.4371 10.9166C52.0106 10.9166 51.6451 11.1604 51.5841 11.6478H53.2901Z" fill="#1A171B"/>
<path d="M54.875 9.14787C54.875 8.53859 55.3624 7.99023 56.0326 7.99023C56.6419 7.99023 57.1903 8.47766 57.1903 9.14787C57.1903 9.81809 56.7028 10.3055 56.0326 10.3055C55.3624 10.3055 54.875 9.81809 54.875 9.14787ZM55.0578 9.14787C55.0578 9.69623 55.4843 10.1227 56.0326 10.1227C56.581 10.1227 57.0075 9.69623 57.0075 9.14787C57.0075 8.59952 56.581 8.17302 56.0326 8.17302C55.4843 8.23395 55.0578 8.66045 55.0578 9.14787ZM56.5201 9.81809H56.3373L56.0326 9.2088H55.7889V9.81809H55.6061V8.53859H56.1545C56.3982 8.53859 56.581 8.59952 56.581 8.90416C56.581 9.14787 56.3982 9.26973 56.2154 9.26973L56.5201 9.81809ZM55.728 8.72138V9.02602H55.9108C56.0936 9.02602 56.3373 9.02602 56.3373 8.90416C56.3373 8.72138 56.2154 8.72138 56.0326 8.72138H55.728Z" fill="#1A171B"/>
<path d="M42.0171 11.1585H41.1641V10.0618H42.078V9.5134C42.078 8.17297 42.6873 7.68555 43.8449 7.68555C44.1495 7.68555 44.3933 7.74647 44.576 7.74647L44.5151 8.84319C44.3933 8.78226 44.2714 8.78226 44.0277 8.78226C43.6621 8.78226 43.4793 9.0869 43.4793 9.5134V10.0618H44.5151V11.1585H43.4793V14.5705H42.0171V11.1585Z" fill="#1A171B"/>
<path d="M26.9097 17.7389C26.4222 17.5561 26.1785 17.4952 25.6911 17.4952C25.1427 17.4952 24.5334 17.678 24.5334 18.3482C24.5334 19.5668 27.3362 19.2621 27.3362 21.3337C27.3362 22.6741 26.3004 23.2225 24.9599 23.2225C24.5334 23.2225 24.046 23.1006 23.6195 22.9788L23.7414 22.1258C24.046 22.2476 24.5944 22.4304 25.0818 22.4304C25.6302 22.4304 26.3613 22.1258 26.3613 21.3946C26.3613 19.9933 23.5586 20.3588 23.5586 18.4091C23.5586 17.3124 24.4725 16.7031 25.6302 16.7031C26.0567 16.7031 26.5441 16.7641 27.0315 16.9468L26.9097 17.7389Z" fill="#1A171B"/>
<path d="M28.6758 16.8262H32.2706V17.6182H29.5897V19.4461H32.0268V20.2382H29.5897V22.3097H32.2706V23.1018H28.6758V16.8262Z" fill="#1A171B"/>
<path d="M37.8758 17.8611C37.4493 17.6174 37.0228 17.4956 36.5354 17.4956C35.0731 17.4956 34.0374 18.5314 34.0374 19.9327C34.0374 21.395 35.1341 22.3698 36.4745 22.3698C36.9619 22.3698 37.5712 22.248 37.8758 22.0652L37.9368 22.9182C37.4493 23.101 36.8401 23.1619 36.4745 23.1619C34.4029 23.1619 33.0625 21.8824 33.0625 19.8718C33.0625 17.9221 34.5248 16.6426 36.4745 16.6426C36.9619 16.6426 37.4493 16.7035 37.9368 16.8863L37.8758 17.8611Z" fill="#1A171B"/>
<path d="M43.7227 20.4819C43.7227 22.2488 42.8088 23.1627 41.2246 23.1627C39.6405 23.1627 38.7266 22.2488 38.7266 20.4819V16.8262H39.6405V20.36C39.6405 21.5786 40.0061 22.3707 41.2246 22.3707C42.4432 22.3707 42.8088 21.5177 42.8088 20.36V16.8262H43.7227V20.4819Z" fill="#1A171B"/>
<path d="M45.1875 16.8262H46.7716C48.0511 16.8262 49.2697 17.009 49.2697 18.5322C49.2697 19.3242 48.6604 19.8117 47.9293 19.9335C48.2339 20.0554 48.3558 20.1772 48.5386 20.5428L49.7571 23.0409H48.7213L47.7465 20.8474C47.4418 20.2382 47.1372 20.2382 46.6498 20.2382H46.1014V23.0409H45.1875V16.8262ZM46.1014 19.507H46.8935C47.7465 19.507 48.2948 19.1415 48.2948 18.5322C48.2948 17.9838 47.8683 17.6182 47.0154 17.6182H46.1014V19.507Z" fill="#1A171B"/>
<path d="M50.8516 16.8262H54.4463V17.6182H51.7655V19.4461H54.2026V20.2382H51.7655V22.3097H54.4463V23.1018H50.8516V16.8262Z" fill="#1A171B"/>
<path d="M34.9495 11.4646C34.7058 11.2818 34.4011 11.2209 34.0356 11.2209C33.4263 11.2209 32.9388 11.7083 32.9388 12.4395C32.9388 13.1706 33.4872 13.5971 34.1574 13.5971C34.4621 13.5971 34.8276 13.5362 35.0713 13.3534L35.1323 14.511C34.7667 14.6329 34.3402 14.6938 33.9137 14.6938C32.5123 14.6938 31.4766 13.8408 31.4766 12.3176C31.4766 10.7944 32.5733 9.94141 33.9137 9.94141C34.3402 9.94141 34.7667 10.0023 35.0713 10.1851L34.9495 11.4646Z" fill="#1A171B"/>
<defs>
<linearGradient id="paint0_linear_1478_18963" x1="6.82742" y1="21.7403" x2="16.8846" y2="3.01964" gradientUnits="userSpaceOnUse">
<stop stop-color="#636466"/>
<stop offset="0.0367559" stop-color="#68696B"/>
<stop offset="0.2712" stop-color="#838486"/>
<stop offset="0.509" stop-color="#97989A"/>
<stop offset="0.7502" stop-color="#A2A3A5"/>
<stop offset="1" stop-color="#A6A7A9"/>
</linearGradient>
<linearGradient id="paint1_linear_1478_18963" x1="16.2775" y1="16.3731" x2="3.28797" y2="7.77894" gradientUnits="userSpaceOnUse">
<stop stop-color="#C5C6C8"/>
<stop offset="0.0948435" stop-color="#DCDDDE"/>
<stop offset="0.2048" stop-color="#F0F0F0"/>
<stop offset="0.3167" stop-color="#FBFBFB"/>
<stop offset="0.4326" stop-color="white"/>
<stop offset="0.5362" stop-color="#F6F7F7"/>
<stop offset="0.7022" stop-color="#DFDFE0"/>
<stop offset="0.9089" stop-color="#B9BABB"/>
<stop offset="1" stop-color="#A6A7A9"/>
</linearGradient>
<linearGradient id="paint2_linear_1478_18963" x1="19.5601" y1="18.8065" x2="5.86048" y2="9.53907" gradientUnits="userSpaceOnUse">
<stop stop-color="#4B4B4D"/>
<stop offset="0.2321" stop-color="#646466"/>
<stop offset="0.482" stop-color="#77787A"/>
<stop offset="0.7365" stop-color="#828385"/>
<stop offset="1" stop-color="#868789"/>
</linearGradient>
<linearGradient id="paint3_linear_1478_18963" x1="6.27404" y1="18.1687" x2="17.9887" y2="9.80651" gradientUnits="userSpaceOnUse">
<stop stop-color="#8B1820"/>
<stop offset="0.6067" stop-color="#CC1332"/>
<stop offset="0.7079" stop-color="#CA0233"/>
<stop offset="1" stop-color="#8B1E40"/>
</linearGradient>
<radialGradient id="paint4_radial_1478_18963" cx="0" cy="0" r="1" gradientUnits="userSpaceOnUse" gradientTransform="translate(10.4412 12.1111) scale(12.4516 12.4516)">
<stop stop-color="#CC1332"/>
<stop offset="0.4607" stop-color="#CA0233"/>
<stop offset="1" stop-color="#8B1E40"/>
</radialGradient>
<linearGradient id="paint5_linear_1478_18963" x1="2.88824" y1="10.1273" x2="13.2467" y2="22.0749" gradientUnits="userSpaceOnUse">
<stop stop-color="#8B1820"/>
<stop offset="0.6067" stop-color="#CC1332"/>
<stop offset="0.7079" stop-color="#CA0233"/>
<stop offset="1" stop-color="#8B1E40"/>
</linearGradient>
</defs>
</svg>
