<svg width="39" height="24" viewBox="0 0 39 24" fill="none" xmlns="http://www.w3.org/2000/svg">
<rect x="0.5" width="38" height="24" rx="3" fill="#6974DE"/>
<path d="M7.64128 10.8538C7.64128 10.5843 7.91442 10.4495 8.27862 10.4495C8.82491 10.4495 9.55329 10.6292 10.0996 10.9437V9.23651C9.50777 9.01189 8.87043 8.87711 8.27862 8.87711C6.82184 8.87711 5.82031 9.64084 5.82031 10.9437C5.82031 12.9204 8.55176 12.561 8.55176 13.4595C8.55176 13.774 8.27862 13.9087 7.8689 13.9087C7.27708 13.9087 6.50317 13.6392 5.91136 13.3247V15.0319C6.59422 15.3014 7.23156 15.4362 7.8689 15.4362C9.37119 15.4362 10.3727 14.7174 10.3727 13.4145C10.4182 11.2581 7.64128 11.6625 7.64128 10.8538ZM18.9768 15.3014H20.7978V9.01189H18.9768V15.3014ZM12.7855 7.52936L11.0101 7.88876V13.5493C11.0101 14.6275 11.8295 15.3913 12.8766 15.3913C13.4684 15.3913 13.9236 15.3014 14.1512 15.1666V13.729C13.9236 13.8189 12.7855 14.1334 12.7855 13.1001V10.5393H14.1512V9.01189H12.7855V7.52936ZM16.6095 9.55099L16.564 9.01189H14.9251V15.3014H16.7461V11.0335C17.2013 10.4944 17.9753 10.5843 18.2029 10.6741V9.01189C17.9753 8.92204 17.0648 8.78726 16.6095 9.55099ZM18.9768 8.51771L20.7978 8.15831V6.67578L18.9768 7.03518V8.51771ZM33.1803 12.1566C33.1803 10.3147 32.2698 8.87711 30.5399 8.87711C28.81 8.87711 27.7629 10.3147 27.7629 12.1566C27.7629 14.3131 28.9921 15.3913 30.7675 15.3913C31.6325 15.3913 32.2698 15.2116 32.7706 14.8971V13.5044C32.2698 13.774 31.7235 13.9087 30.9952 13.9087C30.2668 13.9087 29.675 13.6392 29.5839 12.7856H33.1348C33.1803 12.6957 33.1803 12.3363 33.1803 12.1566ZM29.5839 11.4828C29.5839 10.6741 30.0847 10.3596 30.5399 10.3596C30.9952 10.3596 31.4504 10.6741 31.4504 11.4828H29.5839ZM24.8039 8.87711C24.0755 8.87711 23.6658 9.19159 23.3926 9.46114L23.3471 9.01189H21.7082V17.323L23.5292 17.0086V14.9869C23.8023 15.1666 24.1665 15.4362 24.8039 15.4362C26.1241 15.4362 27.3077 14.4029 27.3077 12.1117C27.2622 10.0452 26.0786 8.87711 24.8039 8.87711ZM24.3486 13.8189C23.9389 13.8189 23.6658 13.6841 23.4837 13.4595V10.8089C23.6658 10.5843 23.9389 10.4495 24.3486 10.4495C25.0315 10.4495 25.4867 11.1683 25.4867 12.1117C25.4867 13.1001 25.0315 13.8189 24.3486 13.8189Z" fill="white"/>
</svg>
