<svg width="40" height="40" viewBox="0 0 40 40" fill="none" xmlns="http://www.w3.org/2000/svg">
<g id="Group 31">
<path id="Vector" d="M34.5891 36.0457C33.922 36.3251 33.1608 36.4337 32.4467 36.5036C31.246 37.6598 30.0375 38.4358 28.2954 38.4358C27.699 38.4358 27.079 38.3272 26.4904 38.2108C25.2113 39.0799 24.0577 39.7007 22.5196 39.9956C21.1855 40.0344 20.2124 39.8171 18.9882 39.2894C16.7046 39.9258 14.6328 39.6154 12.5768 38.4824C12.4512 38.4126 12.3257 38.3427 12.2079 38.2651C10.3088 38.8471 8.60594 38.6919 6.83239 37.7762C3.76402 36.2009 1.91199 32.771 0.915352 29.6203C-0.591373 24.8634 -0.269623 19.2451 2.11602 14.8141C3.27746 12.6645 5.22365 10.0338 7.69562 9.27333C8.11939 9.14141 8.57454 9.07157 9.02185 9.02501C10.1676 8.00843 11.2113 7.58163 12.7887 7.66699C13.4165 7.69803 14.0286 7.81443 14.6485 7.91531C15.4333 6.88322 16.6653 6.44865 17.866 6.04513C17.7091 4.54743 17.4422 2.04091 18.4703 0.799291C18.8862 0.294883 19.3649 0.100881 20.0005 0C21.1541 0.232803 22.1115 0.791533 22.7864 1.77707C23.0297 2.12627 23.0297 2.3358 22.9512 2.74708C22.3234 3.18165 21.5543 3.34461 20.903 3.7947C20.5655 4.52415 20.3851 5.21479 20.236 5.99857C21.9153 6.35553 23.014 6.9453 24.2853 8.07827C25.4546 7.56611 26.5689 7.41866 27.7774 7.88427C28.5857 8.19468 29.4333 8.69908 30.2729 8.89309C31.0812 9.07933 31.9366 8.94741 32.7371 9.22677C35.3503 10.1269 37.3828 13.0059 38.4187 15.4116C40.5532 20.378 40.4983 26.6637 38.4265 31.6535C37.6653 33.4771 36.4882 35.2464 34.5812 36.0457H34.5891ZM2.77521 16.4825C1.18216 21.0765 1.28418 26.9819 2.85368 31.5681C3.25391 32.7321 3.88172 33.8574 4.43105 34.9593L4.5409 34.9826C4.59584 34.5635 4.14854 33.8962 3.96805 33.4849C3.41872 32.2821 3.06558 31.0327 2.76737 29.7523C1.21357 23.1019 2.30437 17.4447 5.94562 11.6867C4.50953 12.6567 3.32455 14.8917 2.76737 16.4825H2.77521ZM18.8234 38.8394L18.9725 38.8782C19.1765 38.2185 18.4467 36.0612 18.2584 35.3163L17.866 35.487C17.5521 36.457 18.3839 37.9547 18.8156 38.8394H18.8234ZM8.088 20.5333C8.02522 21.8137 7.80548 23.0631 7.80548 24.359C7.79763 28.0683 8.84136 34.7032 11.5409 37.4037L11.6508 37.4348C11.7057 37.0778 11.2976 36.457 11.1328 36.1078C10.144 33.9893 9.13171 31.7777 8.55099 29.5117C7.81333 26.6017 8.15863 23.5054 8.088 20.5255V20.5333ZM8.70795 15.9858L8.62162 16.0712C8.49606 16.9403 9.7752 22.5276 9.95569 24.0719C11.5644 23.6761 13.181 23.3036 14.7976 22.9389L16.0532 22.6595C13.5499 20.4867 11.0544 18.3371 8.7158 15.9936L8.70795 15.9858ZM19.3335 23.2415C18.2113 24.4056 17.4109 26.6327 16.7203 28.0916C17.6227 28.1149 18.5252 28.1071 19.4198 28.1149C20.2438 28.0838 21.0678 27.9985 21.8918 27.9286C20.9422 26.4154 20.1182 24.8401 19.3335 23.2415ZM28.8761 18.0345C27.3929 19.3382 25.8862 20.6264 24.3559 21.8913L24.403 22.0465L24.8582 22.1862C26.5768 22.481 28.3189 22.8302 30.0532 22.9777C30.7281 20.735 31.3716 18.0267 31.505 15.6909C30.5868 16.4126 29.7472 17.274 28.8682 18.0423L28.8761 18.0345ZM29.2057 27.2535C27.542 28.1614 25.5958 28.8055 23.736 29.1703C18.2034 30.28 13.1104 29.4108 8.42543 26.3068C8.48821 26.493 8.54314 26.687 8.60592 26.8733C9.014 28.0994 9.76737 31.0016 10.9523 31.5914C11.6194 31.3586 12.3178 31.2189 13.0005 31.056C13.236 31.7777 13.4165 32.5226 13.6205 33.2443C15.0017 33.578 16.3828 33.772 17.7875 33.9427C18.0151 33.4849 18.2191 32.965 18.4938 32.5304C18.6821 32.2355 18.8156 32.1579 19.153 32.1113C19.7573 32.5149 20.1418 33.4073 20.5263 34.0281C22.0409 33.9582 23.5476 33.7487 25.0465 33.5314L25.894 30.8542C26.7259 31.1491 27.5499 31.6225 28.3503 32.0105C29.0566 31.8553 29.755 31.6225 30.4534 31.4284C30.9321 29.5815 31.2696 27.6958 31.6384 25.8334C30.7987 26.2292 30.014 26.8034 29.1978 27.2535H29.2057ZM33.3884 15.5901C33.0196 16.079 33.5611 18.7484 33.6317 19.4391C34.1261 24.1727 33.977 28.2158 32.7998 32.8718C32.7449 33.1046 32.7292 33.1822 32.7371 33.4383C34.0084 30.536 34.6362 26.6094 34.6362 23.4588C34.6362 21.9378 34.4635 16.6532 33.3806 15.5978L33.3884 15.5901ZM34.9422 12.2222C34.9815 13.1068 36.2528 14.8529 36.6137 15.8229C37.7595 18.8881 38.3873 22.675 38.0106 25.9421C37.8223 27.6027 37.4063 29.2323 37.1945 30.8852L37.2651 30.8309C38.0106 28.759 38.4972 26.656 38.6149 24.4521C38.8346 20.1918 37.9243 15.4659 34.9501 12.2299L34.9422 12.2222Z" fill="#0B0F0F"/>
<path id="Vector_2" d="M18.2663 35.3242C18.4547 36.0692 19.1845 38.2265 18.9805 38.8861L18.8314 38.8473C18.3997 37.9627 17.5679 36.4727 17.8818 35.4949L18.2742 35.3242H18.2663Z" fill="#5C5755"/>
<path id="Vector_3" d="M8.559 29.5195C9.13187 31.7854 10.1442 33.997 11.1408 36.1156C11.3056 36.4648 11.7059 37.0856 11.6588 37.4425L11.5489 37.4115C8.84935 34.7032 7.80564 28.0761 7.81349 24.3667C7.81349 23.0708 8.03321 21.8214 8.09599 20.541C8.16661 23.5131 7.82134 26.6172 8.559 29.5272V29.5195Z" fill="#5C5755"/>
<path id="Vector_4" d="M32.8077 32.8726C33.977 28.2165 34.1261 24.1735 33.6395 19.4398C33.5689 18.7492 33.0196 16.0797 33.3963 15.5908C34.4792 16.6462 34.644 21.9386 34.6519 23.4518C34.6519 26.6024 34.024 30.529 32.7527 33.4313C32.7449 33.183 32.7527 33.0976 32.8155 32.8648L32.8077 32.8726Z" fill="#0B0F0F"/>
<path id="Vector_5" d="M32.8077 32.8726C33.977 28.2165 34.1261 24.1735 33.6395 19.4398C33.5689 18.7492 33.0196 16.0797 33.3963 15.5908C34.4792 16.6462 34.644 21.9386 34.6519 23.4518C34.6519 26.6024 34.024 30.529 32.7527 33.4313C32.7449 33.183 32.7527 33.0976 32.8155 32.8648L32.8077 32.8726Z" fill="url(#paint0_linear_563_9994)"/>
<path id="Vector_6" d="M37.1866 30.8847C37.4063 29.2318 37.8144 27.6022 38.0028 25.9416C38.3794 22.6823 37.7516 18.8876 36.6059 15.8224C36.2449 14.8524 34.9736 13.1063 34.9344 12.2217C37.9007 15.4654 38.811 20.1913 38.5992 24.4439C38.4893 26.6477 37.9949 28.743 37.2494 30.8227L37.1788 30.877L37.1866 30.8847Z" fill="#5C5755"/>
<path id="Vector_7" d="M2.76753 29.7599C3.06574 31.0403 3.41888 32.2897 3.9682 33.4925C4.15655 33.9038 4.60384 34.5634 4.54106 34.9902L4.4312 34.9669C3.88187 33.865 3.25406 32.7398 2.85384 31.5757C1.28434 26.9895 1.18232 21.0841 2.77537 16.4901C3.32469 14.8993 4.50967 12.6643 5.95361 11.6943C2.31236 17.4523 1.22156 23.1095 2.77537 29.7599H2.76753Z" fill="#5C5755"/>
<path id="Vector_8" d="M16.7201 28.0913C17.4028 26.6324 18.2111 24.4052 19.3333 23.2412C20.1181 24.8398 20.9421 26.4151 21.8916 27.9283C21.0676 27.9904 20.2436 28.0835 19.4196 28.1146C18.5172 28.1146 17.6147 28.1146 16.7201 28.0913Z" fill="#F17D1C"/>
<path id="Vector_9" d="M24.8663 22.1778L24.4112 22.0381L24.3641 21.8829C25.8865 20.618 27.3932 19.3376 28.8842 18.0261C29.7553 17.2501 30.6028 16.3887 31.521 15.6748C31.3876 18.0184 30.7519 20.7266 30.0692 22.9616C28.3271 22.8141 26.5928 22.4649 24.8741 22.17L24.8663 22.1778Z" fill="#F17D1C"/>
<path id="Vector_10" d="M9.94793 24.0645C9.76744 22.5203 8.49614 16.933 8.61385 16.0639L8.70016 15.9785C11.0387 18.3221 13.5342 20.4794 16.0376 22.6444L14.782 22.9238C13.1654 23.2885 11.5488 23.661 9.94007 24.0568L9.94793 24.0645Z" fill="#F17D1C"/>
<path id="Vector_11" d="M28.3583 32.0101C27.5579 31.622 26.7339 31.1487 25.9021 30.8538L25.0545 33.531C23.5557 33.7483 22.0489 33.9578 20.5344 34.0277C20.1498 33.4146 19.7653 32.5145 19.161 32.1109C18.8236 32.1575 18.6902 32.2351 18.5019 32.53C18.2272 32.9645 18.0232 33.4767 17.7956 33.9423C16.3909 33.7716 15.0097 33.5776 13.6285 33.2439C13.4245 32.5145 13.2362 31.7695 13.0086 31.0556C12.318 31.2108 11.6274 31.3504 10.9604 31.591C9.7754 31.0012 9.02205 28.099 8.61398 26.8729C8.5512 26.6866 8.48841 26.4926 8.43348 26.3064C13.1263 29.4027 18.2193 30.2718 23.744 29.1699C25.6039 28.7974 27.5501 28.161 29.2137 27.2531C30.0299 26.803 30.8225 26.2365 31.6543 25.833C31.2855 27.7032 30.948 29.5889 30.4693 31.428C29.7709 31.622 29.0725 31.8549 28.3662 32.0101H28.3583Z" fill="#F17D1C"/>
</g>
<defs>
<linearGradient id="paint0_linear_563_9994" x1="36.5792" y1="24.324" x2="32.7584" y2="27.5439" gradientUnits="userSpaceOnUse">
<stop stop-color="#434344"/>
<stop offset="1" stop-color="#5D5653"/>
</linearGradient>
</defs>
</svg>
