<svg width="28" height="24" viewBox="0 0 28 24" fill="none" xmlns="http://www.w3.org/2000/svg">
<path d="M1.57227 1.32715H4.7189C5.18909 1.32715 5.59577 1.65471 5.69594 2.11411L8.61932 15.5213C8.71949 15.9807 9.12617 16.3083 9.59636 16.3083H23.7609" stroke="black" stroke-width="1.5" stroke-miterlimit="10" stroke-linecap="round"/>
<path d="M6.18547 4.3584H26.4993L24.4651 12.243C24.4082 12.4638 24.209 12.6181 23.981 12.6181H7.986" stroke="black" stroke-width="1.5" stroke-miterlimit="10" stroke-linecap="round"/>
<path d="M11.912 22.6741C13.1071 22.6741 14.0759 21.7143 14.0759 20.5304C14.0759 19.3465 13.1071 18.3867 11.912 18.3867C10.7169 18.3867 9.74805 19.3465 9.74805 20.5304C9.74805 21.7143 10.7169 22.6741 11.912 22.6741Z" stroke="black" stroke-width="1.5" stroke-miterlimit="10"/>
<path d="M20.3573 22.6741C21.5524 22.6741 22.5212 21.7143 22.5212 20.5304C22.5212 19.3465 21.5524 18.3867 20.3573 18.3867C19.1622 18.3867 18.1934 19.3465 18.1934 20.5304C18.1934 21.7143 19.1622 22.6741 20.3573 22.6741Z" stroke="black" stroke-width="1.5" stroke-miterlimit="10"/>
</svg>
