<svg width="102" height="20" viewBox="0 0 102 20" fill="none" xmlns="http://www.w3.org/2000/svg">
<rect x="0.666687" width="28.3333" height="20" rx="4" fill="white"/>
<path fill-rule="evenodd" clip-rule="evenodd" d="M9.62523 13.2152H7.90878L6.62165 8.16031C6.56056 7.92779 6.43084 7.72222 6.24003 7.62534C5.76384 7.38186 5.23912 7.18809 4.66669 7.09036V6.89575H7.43175C7.81337 6.89575 8.09959 7.18809 8.14729 7.52761L8.81512 11.1739L10.5307 6.89575H12.1995L9.62523 13.2152ZM13.1535 13.2152H11.5325L12.8673 6.89575H14.4884L13.1535 13.2152ZM16.5856 8.64643C16.6333 8.30607 16.9195 8.11145 17.2534 8.11145C17.7782 8.06259 18.3498 8.16032 18.8268 8.40295L19.113 7.04234C18.636 6.84773 18.1112 6.75 17.6351 6.75C16.0617 6.75 14.9169 7.62534 14.9169 8.8402C14.9169 9.7644 15.7278 10.2497 16.3002 10.542C16.9195 10.8335 17.158 11.0281 17.1103 11.3196C17.1103 11.7569 16.6333 11.9515 16.1571 11.9515C15.5847 11.9515 15.0123 11.8057 14.4884 11.5623L14.2022 12.9237C14.7746 13.1663 15.3939 13.2641 15.9663 13.2641C17.7305 13.3121 18.8268 12.4376 18.8268 11.125C18.8268 9.47206 16.5856 9.37518 16.5856 8.64643V8.64643ZM24.5 13.2152L23.2129 6.89575H21.8304C21.5441 6.89575 21.2579 7.09036 21.1625 7.38186L18.7791 13.2152H20.4478L20.7809 12.2918H22.8313L23.0221 13.2152H24.5ZM22.0689 8.59757L22.5451 10.9793H21.2102L22.0689 8.59757Z" fill="#172B85"/>
<rect x="37" width="28.3333" height="20" rx="4" fill="white"/>
<path fill-rule="evenodd" clip-rule="evenodd" d="M51.3158 14.0243C50.3291 14.856 49.0492 15.3581 47.6506 15.3581C44.5298 15.3581 42 12.8583 42 9.77474C42 6.69115 44.5298 4.19141 47.6506 4.19141C49.0492 4.19141 50.3291 4.69349 51.3158 5.52519C52.3025 4.69349 53.5824 4.19141 54.9811 4.19141C58.1018 4.19141 60.6316 6.69115 60.6316 9.77474C60.6316 12.8583 58.1018 15.3581 54.9811 15.3581C53.5824 15.3581 52.3025 14.856 51.3158 14.0243Z" fill="#EA5949"/>
<path fill-rule="evenodd" clip-rule="evenodd" d="M51.3158 14.0243C52.5307 13.0002 53.3011 11.4764 53.3011 9.77474C53.3011 8.07311 52.5307 6.54927 51.3158 5.52519C52.3025 4.69349 53.5824 4.19141 54.981 4.19141C58.1018 4.19141 60.6316 6.69115 60.6316 9.77474C60.6316 12.8583 58.1018 15.3581 54.981 15.3581C53.5824 15.3581 52.3025 14.856 51.3158 14.0243Z" fill="#F9A000"/>
<path fill-rule="evenodd" clip-rule="evenodd" d="M51.3159 14.0245C52.5308 13.0004 53.3012 11.4765 53.3012 9.77492C53.3012 8.0733 52.5308 6.54948 51.3159 5.52539C50.1009 6.54948 49.3306 8.0733 49.3306 9.77492C49.3306 11.4765 50.1009 13.0004 51.3159 14.0245Z" fill="#F76858"/>
<rect x="73.3334" width="28.3333" height="20" rx="4" fill="white"/>
<path d="M89.3814 9.75463C89.3814 12.8409 86.9082 15.3428 83.8574 15.3428C80.8066 15.3428 78.3334 12.8409 78.3334 9.75463C78.3334 6.6684 80.8066 4.1665 83.8574 4.1665C86.9082 4.1665 89.3814 6.6684 89.3814 9.75463Z" fill="#F76858"/>
<path d="M96.5476 9.75463C96.5476 12.8409 94.0745 15.3428 91.0236 15.3428C87.9728 15.3428 85.4996 12.8409 85.4996 9.75463C85.4996 6.6684 87.9728 4.1665 91.0236 4.1665C94.0745 4.1665 96.5476 6.6684 96.5476 9.75463Z" fill="#0099DF"/>
<path fill-rule="evenodd" clip-rule="evenodd" d="M87.4405 5.50146C88.6282 6.52643 89.3813 8.05157 89.3813 9.75465C89.3813 11.4577 88.6282 12.9829 87.4405 14.0078C86.2528 12.9829 85.4996 11.4577 85.4996 9.75465C85.4996 8.05157 86.2528 6.52643 87.4405 5.50146Z" fill="#6C6BBD"/>
</svg>
