
<svg width="39" height="24" viewBox="0 0 39 24" fill="none" xmlns="http://www.w3.org/2000/svg">
<rect x="0.5" width="38" height="24" rx="3" fill="#082069"/>
<path d="M11.8053 15.6738H10.23C10.1222 15.6738 10.0306 15.7511 10.0138 15.8561L9.37665 19.8423C9.36399 19.921 9.42571 19.9919 9.50656 19.9919H10.2586C10.3664 19.9919 10.4581 19.9146 10.4749 19.8094L10.6467 18.7342C10.6633 18.629 10.7552 18.5517 10.8628 18.5517H11.3614C12.3991 18.5517 12.9979 18.0562 13.1543 17.0742C13.2248 16.6446 13.1573 16.3071 12.9535 16.0707C12.7296 15.8111 12.3325 15.6738 11.8053 15.6738ZM11.987 17.1297C11.9009 17.6875 11.469 17.6875 11.0514 17.6875H10.8137L10.9805 16.6458C10.9904 16.5828 11.0456 16.5364 11.1101 16.5364H11.2191C11.5035 16.5364 11.7719 16.5364 11.9105 16.6965C11.9932 16.7919 12.0186 16.9338 11.987 17.1297Z" fill="white"/>
<path d="M16.5132 17.111H15.7588C15.6946 17.111 15.639 17.1574 15.6291 17.2204L15.5957 17.4286L15.543 17.3531C15.3797 17.1192 15.0155 17.041 14.6521 17.041C13.8185 17.041 13.1065 17.6641 12.9679 18.538C12.8958 18.974 12.9983 19.3909 13.2489 19.6816C13.4788 19.9489 13.8077 20.0603 14.199 20.0603C14.8707 20.0603 15.2431 19.6341 15.2431 19.6341L15.2095 19.8409C15.1968 19.92 15.2585 19.9909 15.3389 19.9909H16.0184C16.1264 19.9909 16.2176 19.9137 16.2347 19.8084L16.6424 17.2606C16.6553 17.1822 16.5938 17.111 16.5132 17.111ZM15.4617 18.5598C15.3889 18.9851 15.0469 19.2706 14.6106 19.2706C14.3916 19.2706 14.2165 19.2013 14.1041 19.0699C13.9926 18.9394 13.9502 18.7537 13.9857 18.5469C14.0537 18.1252 14.4015 17.8304 14.831 17.8304C15.0453 17.8304 15.2194 17.9007 15.3341 18.0332C15.449 18.1671 15.4946 18.3539 15.4617 18.5598Z" fill="white"/>
<path d="M20.5302 17.1113H19.7722C19.6998 17.1113 19.6319 17.1468 19.5909 17.2061L18.5454 18.7259L18.1022 17.2654C18.0744 17.1741 17.9889 17.1113 17.8922 17.1113H17.1473C17.0568 17.1113 16.9939 17.1986 17.0227 17.2827L17.8576 19.7008L17.0727 20.7943C17.0109 20.8805 17.0731 20.9989 17.1798 20.9989H17.9369C18.0087 20.9989 18.076 20.9643 18.1168 20.9061L20.638 17.3148C20.6983 17.2288 20.6364 17.1113 20.5302 17.1113Z" fill="white"/>
<path d="M23.0397 15.6738H21.4642C21.3566 15.6738 21.2649 15.7511 21.2481 15.8561L20.611 19.8423C20.5984 19.921 20.6601 19.9919 20.7405 19.9919H21.5489C21.624 19.9919 21.6883 19.9378 21.7 19.8641L21.8809 18.7342C21.8974 18.629 21.9893 18.5517 22.0969 18.5517H22.5953C23.6332 18.5517 24.2319 18.0562 24.3885 17.0742C24.4592 16.6446 24.3913 16.3071 24.1874 16.0707C23.9638 15.8111 23.5669 15.6738 23.0397 15.6738ZM23.2214 17.1297C23.1355 17.6875 22.7036 17.6875 22.2858 17.6875H22.0483L22.2153 16.6458C22.2252 16.5828 22.28 16.5364 22.3447 16.5364H22.4537C22.7379 16.5364 23.0065 16.5364 23.1452 16.6965C23.2278 16.7919 23.2529 16.9338 23.2214 17.1297Z" fill="white"/>
<path d="M27.7505 17.111H26.9966C26.9319 17.111 26.8768 17.1574 26.8671 17.2204L26.8337 17.4286L26.7808 17.3531C26.6175 17.1192 26.2535 17.041 25.8901 17.041C25.0565 17.041 24.3448 17.6641 24.2061 18.538C24.1342 18.974 24.2363 19.3909 24.4869 19.6816C24.7172 19.9489 25.0457 20.0603 25.437 20.0603C26.1086 20.0603 26.4811 19.6341 26.4811 19.6341L26.4475 19.8409C26.4348 19.92 26.4965 19.9909 26.5774 19.9909H27.2566C27.3642 19.9909 27.4559 19.9137 27.4727 19.8084L27.8806 17.2606C27.893 17.1822 27.8313 17.111 27.7505 17.111ZM26.699 18.5598C26.6267 18.9851 26.2842 19.2706 25.8479 19.2706C25.6293 19.2706 25.4538 19.2013 25.3414 19.0699C25.2299 18.9394 25.188 18.7537 25.223 18.5469C25.2914 18.1252 25.6388 17.8304 26.0683 17.8304C26.2825 17.8304 26.4567 17.9007 26.5714 18.0332C26.6868 18.1671 26.7324 18.3539 26.699 18.5598Z" fill="white"/>
<path d="M28.6404 15.7834L27.9938 19.8425C27.9812 19.9212 28.0429 19.9921 28.1233 19.9921H28.7733C28.8813 19.9921 28.973 19.9148 28.9896 19.8096L29.6271 15.8236C29.6398 15.745 29.5781 15.6738 29.4977 15.6738H28.7698C28.7056 15.6741 28.6503 15.7204 28.6404 15.7834Z" fill="white"/>
<path opacity="0.68" d="M23.3882 5.56786C23.5132 4.78157 23.3874 4.24667 22.9564 3.762C22.482 3.22854 21.6249 3 20.5283 3H17.3452C17.1211 3 16.9302 3.1609 16.8954 3.37946L15.5698 11.674C15.5437 11.8376 15.6719 11.9856 15.8397 11.9856H17.8048L17.6692 12.8343C17.6463 12.9775 17.7584 13.1069 17.9053 13.1069H19.5617C19.7577 13.1069 19.9246 12.9662 19.9552 12.7751L19.9715 12.6919L20.2835 10.7392L20.3036 10.6313C20.3342 10.4403 20.5011 10.2993 20.6971 10.2993H20.9449C22.5496 10.2993 23.8061 9.65602 24.1732 7.79539C24.3266 7.01795 24.2472 6.36898 23.8416 5.91273C23.719 5.77499 23.5663 5.66093 23.3882 5.56786Z" fill="white"/>
<path opacity="0.7" d="M23.3882 5.56786C23.5132 4.78157 23.3874 4.24667 22.9564 3.762C22.482 3.22854 21.6249 3 20.5283 3H17.3452C17.1211 3 16.9302 3.1609 16.8954 3.37946L15.5698 11.674C15.5437 11.8376 15.6719 11.9856 15.8397 11.9856H17.8048L18.2984 8.89649L18.2831 8.99336C18.318 8.77491 18.5072 8.61391 18.7313 8.61391H19.6654C21.4997 8.61391 22.9361 7.87847 23.3556 5.75162C23.3682 5.68882 23.3787 5.62778 23.3882 5.56786Z" fill="white"/>
<path d="M18.8288 5.57826C18.8497 5.4469 18.9353 5.33922 19.0503 5.28487C19.1026 5.26016 19.1611 5.24637 19.2224 5.24637H21.7175C22.0132 5.24637 22.2888 5.26551 22.5407 5.30556C22.6127 5.31699 22.6828 5.33016 22.7509 5.34509C22.8189 5.36002 22.8851 5.37659 22.949 5.39512C22.981 5.40428 23.0124 5.41406 23.0434 5.42415C23.1671 5.46471 23.2824 5.51248 23.3884 5.56797C23.5134 4.78167 23.3876 4.24677 22.9566 3.7621C22.482 3.22854 21.6249 3 20.5283 3H17.3452C17.1211 3 16.9302 3.1609 16.8954 3.37946L15.5698 11.674C15.5437 11.8376 15.6719 11.9856 15.8397 11.9856H17.8048L18.2984 8.89649L18.8288 5.57826Z" fill="white"/>
</svg>
