<svg width="60" height="32" viewBox="0 0 60 32" fill="none" xmlns="http://www.w3.org/2000/svg">
<g clip-path="url(#clip0_1478_18962)">
<path d="M22.446 9.65199H46.1471C48.5248 9.65199 50.4978 10.4112 52.1925 11.9548C53.8366 13.4731 54.6461 15.2951 54.6714 17.5219H55.0002H54.6714C54.6461 19.6982 53.8366 21.4949 52.1925 23.0385C50.523 24.5821 48.5248 25.3666 46.1471 25.3666H22.446C22.269 25.3666 22.1172 25.5184 22.1172 25.6955C22.1172 25.8727 22.269 26.0245 22.446 26.0245H46.1471C48.6765 26.0245 50.8519 25.1894 52.6478 23.5193C54.4184 21.8744 55.329 19.85 55.329 17.4966C55.3037 15.1179 54.4184 13.0682 52.6225 11.4487C50.8266 9.80382 48.6512 8.96875 46.1218 8.96875H22.446C22.269 8.96875 22.1172 9.12058 22.1172 9.29772C22.1172 9.50016 22.269 9.65199 22.446 9.65199ZM22.446 9.65199H46.1471C48.5248 9.65199 50.4978 10.4112 52.1925 11.9548C53.8366 13.4731 54.6461 15.2951 54.6714 17.5219H55.0002H54.6714C54.6461 19.6982 53.8366 21.4949 52.1925 23.0385C50.523 24.5821 48.5248 25.3666 46.1471 25.3666H22.446C22.269 25.3666 22.1172 25.5184 22.1172 25.6955C22.1172 25.8727 22.269 26.0245 22.446 26.0245H46.1471C48.6765 26.0245 50.8519 25.1894 52.6478 23.5193C54.4184 21.8744 55.329 19.85 55.329 17.4966C55.3037 15.1179 54.4184 13.0682 52.6225 11.4487C50.8266 9.80382 48.6512 8.96875 46.1218 8.96875H22.446C22.269 8.96875 22.1172 9.12058 22.1172 9.29772C22.1172 9.50016 22.269 9.65199 22.446 9.65199Z" fill="#9B0033"/>
<path fill-rule="evenodd" clip-rule="evenodd" d="M20.3483 9.47609C21.7142 10.2606 22.7765 11.3487 23.5607 12.6646C24.3448 14.031 24.7495 15.524 24.7748 17.1689C24.7495 18.8643 24.3448 20.3827 23.5607 21.6985C22.7765 23.0397 21.7142 24.1278 20.3483 24.9376C19.0077 25.7221 17.5153 26.127 15.8458 26.1523C14.1764 26.127 12.684 25.7221 11.3434 24.9376C9.97747 24.1278 8.9151 23.0397 8.15626 21.7238C7.32153 20.3827 6.94211 18.8897 6.91682 17.1942C6.94211 15.5494 7.32153 14.031 8.15626 12.6899C8.9151 11.3487 10.0028 10.2859 11.3434 9.50139C12.684 8.71693 14.2017 8.28674 15.8458 8.26143C17.49 8.26143 19.0077 8.69162 20.3483 9.47609ZM15.8205 6.43945C13.8223 6.46476 12.001 6.94556 10.3822 7.90716C8.78862 8.86876 7.52389 10.1593 6.5374 11.7536C5.57621 13.3731 5.09561 15.1951 5.07031 17.1942C5.09561 19.1933 5.57621 21.0153 6.5374 22.6348C7.52389 24.2544 8.78862 25.5449 10.3822 26.5318C12.001 27.4681 13.8223 27.9489 15.8205 27.9996C17.8441 27.9742 19.6653 27.4934 21.2842 26.5318C22.903 25.5449 24.193 24.2544 25.1542 22.6348C26.0901 21.0153 26.596 19.1933 26.6213 17.1942C26.596 15.1951 26.1154 13.3731 25.1542 11.7536C24.193 10.1593 22.903 8.86876 21.2842 7.90716C19.6653 6.94556 17.8441 6.46476 15.8205 6.43945Z" fill="#9B0033"/>
<path d="M29.3516 14.082H30.0851L30.8945 16.2583L31.704 14.082H32.4122L31.1981 17.1693H30.591L29.3516 14.082Z" fill="#9B0033"/>
<path d="M37.9274 14.8155H38.6104V17.1688H37.9274V14.8155ZM37.9021 13.9551H38.6104V14.5371H37.9021V13.9551ZM35.8026 14.8155H36.4603V15.271C36.5362 15.1191 36.6374 14.9926 36.7385 14.8914C36.8397 14.7902 36.9915 14.7395 37.1939 14.7648V15.4734H37.1686C36.9156 15.4734 36.7638 15.5493 36.6374 15.6758C36.5109 15.8024 36.435 16.0301 36.435 16.3085V17.1688H35.7774V14.8155H35.8026ZM34.3609 15.8024C34.3356 15.6505 34.285 15.5493 34.2091 15.4228C34.1332 15.3469 34.0067 15.2963 33.8803 15.2963C33.7285 15.2963 33.6273 15.3469 33.5261 15.4228C33.4502 15.524 33.3744 15.6505 33.3491 15.8024H34.3609ZM33.9308 17.2195C33.7791 17.2195 33.602 17.1688 33.4502 17.1182C33.2985 17.0676 33.172 16.9917 33.0455 16.8652C32.9444 16.764 32.8685 16.6374 32.7926 16.4856C32.7167 16.3338 32.6914 16.1566 32.6914 15.9795C32.6914 15.8024 32.7167 15.6505 32.7673 15.4987C32.8432 15.3469 32.8938 15.2203 33.0202 15.0938C33.1214 14.9926 33.2479 14.8914 33.3997 14.8408C33.5514 14.7648 33.7032 14.7648 33.8803 14.7648C34.0826 14.7648 34.2344 14.8155 34.3861 14.8661C34.5379 14.942 34.6391 15.0179 34.7403 15.1444C34.8162 15.2456 34.892 15.3975 34.9679 15.5493C35.0185 15.7011 35.0438 15.8783 35.0438 16.0301L35.0185 16.106V16.1819H33.3997C33.425 16.3338 33.4755 16.435 33.602 16.5362C33.7032 16.6121 33.8297 16.6374 33.9814 16.6374C34.0826 16.6374 34.1838 16.6121 34.285 16.5615C34.3609 16.5362 34.4367 16.4856 34.5379 16.3844L34.9173 16.7134C34.8162 16.8652 34.6644 16.9664 34.5126 17.0423C34.3356 17.1688 34.1585 17.2195 33.9308 17.2195Z" fill="#9B0033"/>
<path d="M40.6591 17.1945C40.4061 17.1945 40.2038 17.1439 39.9508 17.068C39.7232 16.9921 39.5461 16.8655 39.3438 16.6884L39.7485 16.2329C39.8749 16.3341 40.0014 16.4353 40.1532 16.4859C40.3049 16.5619 40.4567 16.5872 40.6338 16.5872C40.7855 16.5872 40.8867 16.5619 40.9626 16.5113C41.0385 16.4606 41.0638 16.41 41.0638 16.3088V16.1823L40.9626 16.1064L40.7855 16.0305L40.4567 15.9292L40.052 15.828L39.7232 15.6509L39.5208 15.3978C39.4702 15.2966 39.4449 15.1701 39.4449 15.0182V14.9929L39.5208 14.6134C39.5967 14.5121 39.6473 14.3856 39.7738 14.335C39.8496 14.2591 39.9761 14.1832 40.1026 14.1326C40.2291 14.0819 40.3808 14.0566 40.5326 14.0566C40.7602 14.0566 40.9373 14.1073 41.1397 14.1579C41.342 14.2338 41.5191 14.3097 41.6709 14.4362L41.3167 14.9423L40.912 14.7146C40.7855 14.6387 40.6591 14.6387 40.5073 14.6387C40.3808 14.6387 40.2797 14.664 40.2291 14.7146C40.1532 14.7652 40.1279 14.8158 40.1279 14.8917V14.917L40.1785 15.0435L40.2544 15.1195L40.482 15.1954L40.8108 15.2713L41.2155 15.4231C41.3167 15.4737 41.4432 15.5243 41.5191 15.6003L41.6961 15.8533C41.7467 15.9545 41.772 16.0811 41.772 16.2076V16.2329C41.772 16.3847 41.7467 16.5113 41.6961 16.6378C41.6456 16.739 41.595 16.8655 41.4685 16.9414C41.3673 17.0174 41.2408 17.068 41.0891 17.1186C40.9626 17.1692 40.8108 17.1945 40.6591 17.1945Z" fill="#9B0033"/>
<path d="M42.6347 14.8155H43.3176V17.1689H42.6347V14.8155ZM42.6094 13.9551H43.3176V14.5371H42.6094V13.9551Z" fill="#9B0033"/>
<path d="M47.5381 14.8161H48.1958V15.145L48.3222 15.0185L48.474 14.892L48.6511 14.8161L48.8787 14.7908C49.1317 14.7908 49.334 14.8667 49.4605 15.0438C49.6123 15.1956 49.6881 15.3981 49.6881 15.6764V17.1948H49.0052V15.8283C49.0052 15.6764 48.9799 15.5752 48.9293 15.474C48.8534 15.3981 48.7522 15.3728 48.6258 15.3728C48.4993 15.3728 48.3728 15.4234 48.3222 15.474C48.2464 15.5499 48.2211 15.6764 48.2211 15.8283V17.1442H47.5634V14.8161H47.5381ZM45.4387 16.4103L45.6916 16.3597C45.7675 16.3344 45.7928 16.3091 45.8687 16.2585C45.9193 16.2079 45.9445 16.1572 45.9698 16.0813C45.9951 16.0054 46.0204 15.9548 46.0204 15.8536L45.9698 15.6258C45.9445 15.5499 45.894 15.4993 45.8687 15.4487L45.6916 15.3475L45.4387 15.2969L45.211 15.3475L45.0339 15.4487C44.9581 15.4993 44.9328 15.5499 44.9075 15.6258L44.8569 15.8536C44.8569 16.0307 44.9328 16.1572 45.0339 16.2585C45.1351 16.3597 45.2869 16.4103 45.4387 16.4103ZM45.3628 17.8527L44.8063 17.7768C44.6039 17.7515 44.4522 17.7009 44.3004 17.5996L44.5533 17.0935L44.9328 17.2707L45.3375 17.3213C45.5651 17.3213 45.7422 17.2707 45.8434 17.1695C45.9445 17.0682 45.9951 16.9164 45.9951 16.6887V16.5874C45.9193 16.6887 45.7928 16.8152 45.6916 16.8658C45.5904 16.9417 45.4387 16.9417 45.2363 16.9417C45.1098 16.9417 44.9834 16.9164 44.8316 16.8658C44.7304 16.8152 44.6039 16.7646 44.5028 16.638C44.4269 16.5621 44.351 16.4356 44.2751 16.3091C44.1992 16.1572 44.1992 16.0054 44.1992 15.8283C44.1992 15.6511 44.2245 15.4993 44.2751 15.3728C44.351 15.221 44.4016 15.1197 44.5028 15.0185C44.6039 14.9173 44.7304 14.8414 44.8569 14.7908L45.2363 14.7148C45.4387 14.7148 45.5904 14.7655 45.6916 14.8161C45.7928 14.892 45.9193 14.9426 45.9951 15.0691V14.8161H46.6528V16.638C46.6528 17.0429 46.5769 17.3719 46.3746 17.549C46.2734 17.6503 46.1216 17.7515 45.9698 17.8021L45.3628 17.8527Z" fill="#9B0033"/>
<path d="M31.0497 21.0402C30.7968 21.0402 30.5944 20.9896 30.3414 20.9137C30.1138 20.8378 29.9367 20.7112 29.7344 20.5341L30.1391 20.0786C30.2656 20.1798 30.392 20.281 30.5438 20.3316C30.6956 20.4076 30.8473 20.4329 31.0244 20.4329C31.1762 20.4329 31.2774 20.4076 31.3532 20.357C31.4291 20.3063 31.4544 20.2557 31.4544 20.1545V20.028L31.3532 19.9521L31.1762 19.8762L30.8473 19.7749L30.4426 19.6737L30.1138 19.4966L29.9114 19.2435C29.8608 19.1423 29.8356 19.0158 29.8356 18.8639V18.8386L29.9114 18.4591C29.9873 18.3578 30.0379 18.2313 30.1644 18.1807C30.2403 18.1048 30.3667 18.0289 30.4932 17.9783C30.6197 17.9276 30.7715 17.9023 30.9232 17.9023C31.1509 17.9023 31.3279 17.953 31.5303 18.0036C31.7327 18.0795 31.9097 18.1554 32.0615 18.2819L31.7074 18.788L31.3026 18.5603C31.1762 18.4844 31.0497 18.4844 30.8979 18.4844C30.7462 18.4844 30.6703 18.5097 30.6197 18.5603C30.5438 18.6109 30.5185 18.6615 30.5185 18.7374V18.7627L30.5691 18.8892L30.645 18.9652L30.8726 19.0411L31.2015 19.117L31.6062 19.2688C31.7074 19.3194 31.8338 19.37 31.9097 19.446L32.0868 19.699C32.1374 19.8002 32.1627 19.9268 32.1627 20.0533V20.0786C32.1627 20.2304 32.1374 20.357 32.0868 20.4835C32.0362 20.5847 31.9856 20.7112 31.8591 20.7871C31.758 20.8631 31.6315 20.9137 31.4797 20.9643C31.3785 21.0149 31.2268 21.0402 31.0497 21.0402Z" fill="#9B0033"/>
<path d="M37.2707 21.0659C37.0936 21.0659 36.9419 21.0153 36.7901 20.9647C36.6383 20.8888 36.5119 20.8129 36.3854 20.7117C36.2842 20.6104 36.2083 20.4839 36.1324 20.3321C36.0566 20.1803 36.0313 20.0031 36.0313 19.8513C36.0313 19.6741 36.0818 19.5223 36.1324 19.3705C36.2083 19.2187 36.2589 19.0921 36.3854 18.9656C36.4866 18.8644 36.6383 18.7632 36.7901 18.7125C36.9419 18.6366 37.0936 18.6366 37.296 18.6366C37.5236 18.6366 37.7007 18.6872 37.8525 18.7379C38.0042 18.8138 38.1054 18.8897 38.2319 19.0162L37.8272 19.4464C37.7513 19.3705 37.6754 19.2946 37.5742 19.244C37.4983 19.1933 37.3972 19.168 37.2707 19.168L37.043 19.2187L36.866 19.3705L36.7395 19.5729L36.6889 19.826V19.8513C36.6889 19.9272 36.7142 20.0284 36.7395 20.1043C36.7648 20.1803 36.8154 20.2562 36.866 20.3321C36.9166 20.408 36.9672 20.4333 37.043 20.4586C37.1189 20.4839 37.1948 20.5092 37.296 20.5092C37.3972 20.5092 37.4983 20.4839 37.5742 20.4333L37.8272 20.2562L38.2319 20.6611C38.1307 20.7623 37.9789 20.8888 37.8272 20.9647C37.6754 21.0153 37.4983 21.0659 37.2707 21.0659ZM34.6401 19.6235C34.6148 19.4717 34.5642 19.3705 34.4883 19.244C34.4124 19.168 34.2859 19.1174 34.1595 19.1174C34.0077 19.1174 33.9065 19.168 33.8053 19.244C33.7294 19.3452 33.6536 19.4717 33.6283 19.6235H34.6401ZM34.1847 21.0659C34.033 21.0659 33.8559 21.0153 33.7042 20.9647C33.5524 20.9141 33.4259 20.8382 33.2994 20.7117C33.1983 20.6104 33.1224 20.4839 33.0465 20.3321C32.9706 20.1803 32.9453 20.0031 32.9453 19.826C32.9453 19.6488 32.9706 19.497 33.0212 19.3452C33.0971 19.1933 33.1477 19.0668 33.2741 18.9403C33.3753 18.8391 33.5018 18.7379 33.6536 18.6872C33.8053 18.6113 33.9571 18.6113 34.1342 18.6113C34.3365 18.6113 34.4883 18.6619 34.6401 18.7125C34.7918 18.7885 34.893 18.8644 34.9942 18.9909C35.0701 19.0921 35.1459 19.244 35.2218 19.3958C35.2724 19.5476 35.2977 19.7248 35.2977 19.8766L35.2724 19.9525V20.0284H33.6536C33.6789 20.1803 33.7294 20.2815 33.8559 20.3827C33.9571 20.4586 34.0836 20.4839 34.2353 20.4839C34.3365 20.4839 34.4377 20.4586 34.5389 20.408C34.6148 20.3827 34.6906 20.3321 34.7918 20.2309L35.1712 20.5598C35.0701 20.7117 34.9183 20.8129 34.7665 20.8888C34.6148 21.0153 34.4124 21.0659 34.1847 21.0659Z" fill="#9B0033"/>
<path d="M39.8271 21.0407C39.5742 21.0407 39.3971 20.9648 39.2453 20.7877C39.1189 20.6358 39.043 20.4334 39.043 20.155V18.6367H39.7006V19.9526C39.7006 20.1044 39.7512 20.2056 39.8018 20.3069C39.8777 20.3828 39.9789 20.4081 40.1053 20.4081C40.2065 20.4081 40.333 20.3575 40.4089 20.3069C40.4848 20.231 40.5101 20.1044 40.5101 19.9526V18.6367H41.1677V20.9901H40.5101V20.6611L40.3836 20.7877L40.2318 20.9142L40.0548 20.9901L39.8271 21.0407Z" fill="#9B0033"/>
<path d="M48.628 20.4577C48.7038 20.4577 48.805 20.4324 48.8809 20.4071L49.058 20.2806C49.1086 20.2047 49.1339 20.1541 49.1591 20.0782L49.2097 19.8251V19.7998L49.1591 19.5468L49.058 19.3443L48.8809 19.2178C48.805 19.1925 48.7291 19.1672 48.628 19.1672L48.4003 19.2178L48.2232 19.3443L48.0968 19.5468C48.0715 19.6227 48.0462 19.6986 48.0462 19.7998V19.8251L48.0968 20.0782C48.1221 20.1541 48.1727 20.2047 48.2232 20.2806L48.4003 20.4071L48.628 20.4577ZM48.4762 21.0398C48.3244 21.0398 48.198 21.0145 48.0715 20.9639C47.9703 20.9132 47.8438 20.8626 47.7426 20.7361C47.6415 20.6349 47.5656 20.4831 47.4897 20.3312C47.4138 20.1794 47.4138 20.0276 47.4138 19.8251V19.7998C47.4138 19.5974 47.4391 19.4202 47.4897 19.2684C47.5656 19.1166 47.6162 19.0153 47.7426 18.8888C47.8185 18.7876 47.945 18.7117 48.0715 18.6611C48.198 18.5852 48.3244 18.5852 48.4762 18.5852C48.6533 18.5852 48.805 18.6358 48.9062 18.6864C49.0074 18.7623 49.1339 18.8129 49.1844 18.9394V17.7754H49.8421V20.9639H49.1844V20.6349C49.1086 20.7361 49.0074 20.8373 48.9062 20.8879C48.805 20.9892 48.6533 21.0398 48.4762 21.0398ZM45.972 19.6227C45.9467 19.4708 45.8961 19.3696 45.8203 19.2431C45.7444 19.1672 45.6179 19.1166 45.4914 19.1166C45.3397 19.1166 45.2385 19.1672 45.1373 19.2431C45.0614 19.3443 44.9855 19.4708 44.9602 19.6227H45.972ZM45.542 21.0651C45.3902 21.0651 45.2132 21.0145 45.0614 20.9639C44.9097 20.9132 44.7832 20.8373 44.6567 20.7108C44.5555 20.6096 44.4796 20.4831 44.4038 20.3312C44.3279 20.1794 44.3026 20.0023 44.3026 19.8251C44.3026 19.648 44.3279 19.4961 44.3785 19.3443C44.4543 19.1925 44.5049 19.066 44.6314 18.9394C44.7326 18.8382 44.8591 18.737 45.0108 18.6864C45.1626 18.6105 45.3144 18.6105 45.4914 18.6105C45.6938 18.6105 45.8456 18.6611 45.9973 18.7117C46.1491 18.7876 46.2503 18.8635 46.3514 18.99C46.4273 19.0913 46.5032 19.2431 46.5791 19.3949C46.6297 19.5468 46.655 19.7239 46.655 19.8757L46.6297 19.9516V20.0276H45.0108C45.0361 20.1794 45.0867 20.2806 45.2132 20.3818C45.3144 20.4577 45.4408 20.4831 45.5926 20.4831C45.6938 20.4831 45.795 20.4577 45.8961 20.4071C45.972 20.3818 46.0479 20.3312 46.1491 20.23L46.5285 20.559C46.4273 20.7108 46.2756 20.812 46.1238 20.8879C45.972 21.0145 45.7697 21.0651 45.542 21.0651ZM42.2284 18.6358H42.8861V19.0913C42.962 18.9394 43.0631 18.8129 43.1643 18.7117C43.2655 18.6105 43.4173 18.5599 43.6196 18.5852V19.2937H43.5943C43.3414 19.2937 43.1896 19.3696 43.0631 19.4961C42.9367 19.6227 42.8608 19.8504 42.8608 20.1288V20.9892H42.2031V18.6358H42.2284Z" fill="#9B0033"/>
<path fill-rule="evenodd" clip-rule="evenodd" d="M51.0039 8.69141H51.9398V8.91915H51.611V9.83014H51.358V8.91915H51.0039V8.69141ZM53.331 8.69141V9.80484H53.0781V9.07099L52.7998 9.55179H52.7492L52.471 9.07099V9.80484H52.218V8.69141H52.4963L52.7998 9.17221L53.0781 8.69141H53.331Z" fill="#9B0033"/>
<path fill-rule="evenodd" clip-rule="evenodd" d="M22.2215 12.0063H21.4121V12.8413H22.2215V12.0063ZM21.4121 9.90592H22.2215V10.7157H21.4121V9.90592ZM23.5116 7.75497H22.6768V6.9452H23.5116V7.75497ZM25.1557 6.05951H26.7493V5.17383H25.1557V7.72966H23.5369V8.56474H22.1457V9.14676H21.4121V9.88061H20.5268V11.1712H19.6921V11.9809H19.1356V12.816H18.5285C17.2891 14.638 16.3279 16.4347 15.6449 18.2567C14.0767 16.0298 12.6096 14.7392 11.2437 14.2837C10.8642 14.1825 10.6113 14.2584 10.4595 14.5874C10.3078 14.9164 10.4342 15.3212 10.8895 15.8274C12.2807 17.3457 13.5455 19.4966 14.709 22.2296C14.8861 22.6598 15.2908 22.9128 15.9232 22.9634C16.505 23.0141 16.9097 22.7863 17.0867 22.3055C17.9467 20.0533 18.9332 18.1301 20.0715 16.4853V15.549H20.7292V14.7392H21.4374V13.7523H22.2468V12.8413H23.0816V12.0063H23.7392V10.994H24.4728V10.3108H25.181V8.59004H25.9904V7.75497H26.9263V6.91989H25.9904V7.75497H25.181V8.59004H24.3716V9.39981H23.5622V8.59004H24.3716V6.05951H25.1557Z" fill="black"/>
<path d="M25.9618 6.05859H25.1523V6.91897H25.9618V6.05859Z" fill="#A10045"/>
<path d="M22.2196 9.90625H21.4102V10.716H22.2196V9.90625Z" fill="white"/>
<path d="M28.5455 5.17383H27.6602V6.05951H28.5455V5.17383Z" fill="#9B0033"/>
<path d="M27.6822 5.17288V4.3125H26.7969V5.17288" fill="black"/>
<path d="M28.5455 3.42773H27.6602V4.31342H28.5455V3.42773Z" fill="#9B0033"/>
</g>
<defs>
<clipPath id="clip0_1478_18962">
<rect width="50.2857" height="24.5714" fill="white" transform="translate(5.07031 3.42773)"/>
</clipPath>
</defs>
</svg>
